# xmcd CD database file
#
# Track frame offsets:
#	150
#	17104
#	39285
#	54810
#	67655
#	80847
#	96263
#	109805
#	125279
#	145455
#	171381
#
# Disc length: 2547 seconds
#
# Revision: 0
# Processed by: cddbd v1.5.2PL0 Copyright (c) Steve Scherf et al.
# Submitted via: CDex 1.75
#
DISCID=8e09f10b
DTITLE=Roman Barten-Sherman and The Interstellar Blues Orchestra - Death Of Immortality
DYEAR=2015
DGENRE=Blues
TTITLE0=Death Of Immortality
TTITLE1=Spices Of Evil
TTITLE2=Steel Necktie Blues
TTITLE3=Bootleggers Blues
TTITLE4=High Water Everywhere Part 3
TTITLE5=Stars Went Out
TTITLE6=Me and My Chauffeur
TTITLE7=Streamline Train
TTITLE8=Growing Up
TTITLE9=Concrete Shoes
TTITLE10=Trapped In Here
EXTD=YEAR: 2015
EXTT0=
EXTT1=
EXTT2=
EXTT3=
EXTT4=
EXTT5=
EXTT6=
EXTT7=
EXTT8=
EXTT9=
EXTT10=
PLAYORDER=
